<svg id="visual" viewBox="0 0 900 600" width="900" height="600" xmlns="http://www.w3.org/2000/svg" xmlns:xlink="http://www.w3.org/1999/xlink" version="1.1"><rect x="0" y="0" width="900" height="600" fill="#001122"></rect><defs><linearGradient id="grad1_0" x1="33.3%" y1="0%" x2="100%" y2="100%"><stop offset="20%" stop-color="#fbae3c" stop-opacity="1"></stop><stop offset="80%" stop-color="#fbae3c" stop-opacity="1"></stop></linearGradient></defs><defs><linearGradient id="grad1_1" x1="33.3%" y1="0%" x2="100%" y2="100%"><stop offset="20%" stop-color="#fbae3c" stop-opacity="1"></stop><stop offset="80%" stop-color="#f3834e" stop-opacity="1"></stop></linearGradient></defs><defs><linearGradient id="grad1_2" x1="33.3%" y1="0%" x2="100%" y2="100%"><stop offset="20%" stop-color="#d9615f" stop-opacity="1"></stop><stop offset="80%" stop-color="#f3834e" stop-opacity="1"></stop></linearGradient></defs><defs><linearGradient id="grad1_3" x1="33.3%" y1="0%" x2="100%" y2="100%"><stop offset="20%" stop-color="#d9615f" stop-opacity="1"></stop><stop offset="80%" stop-color="#b04a69" stop-opacity="1"></stop></linearGradient></defs><defs><linearGradient id="grad1_4" x1="33.3%" y1="0%" x2="100%" y2="100%"><stop offset="20%" stop-color="#7f3c68" stop-opacity="1"></stop><stop offset="80%" stop-color="#b04a69" stop-opacity="1"></stop></linearGradient></defs><defs><linearGradient id="grad1_5" x1="33.3%" y1="0%" x2="100%" y2="100%"><stop offset="20%" stop-color="#7f3c68" stop-opacity="1"></stop><stop offset="80%" stop-color="#4d315a" stop-opacity="1"></stop></linearGradient></defs><defs><linearGradient id="grad1_6" x1="33.3%" y1="0%" x2="100%" y2="100%"><stop offset="20%" stop-color="#202341" stop-opacity="1"></stop><stop offset="80%" stop-color="#4d315a" stop-opacity="1"></stop></linearGradient></defs><defs><linearGradient id="grad1_7" x1="33.3%" y1="0%" x2="100%" y2="100%"><stop offset="20%" stop-color="#202341" stop-opacity="1"></stop><stop offset="80%" stop-color="#001122" stop-opacity="1"></stop></linearGradient></defs><defs><linearGradient id="grad2_0" x1="0%" y1="0%" x2="66.7%" y2="100%"><stop offset="20%" stop-color="#fbae3c" stop-opacity="1"></stop><stop offset="80%" stop-color="#fbae3c" stop-opacity="1"></stop></linearGradient></defs><defs><linearGradient id="grad2_1" x1="0%" y1="0%" x2="66.7%" y2="100%"><stop offset="20%" stop-color="#f3834e" stop-opacity="1"></stop><stop offset="80%" stop-color="#fbae3c" stop-opacity="1"></stop></linearGradient></defs><defs><linearGradient id="grad2_2" x1="0%" y1="0%" x2="66.7%" y2="100%"><stop offset="20%" stop-color="#f3834e" stop-opacity="1"></stop><stop offset="80%" stop-color="#d9615f" stop-opacity="1"></stop></linearGradient></defs><defs><linearGradient id="grad2_3" x1="0%" y1="0%" x2="66.7%" y2="100%"><stop offset="20%" stop-color="#b04a69" stop-opacity="1"></stop><stop offset="80%" stop-color="#d9615f" stop-opacity="1"></stop></linearGradient></defs><defs><linearGradient id="grad2_4" x1="0%" y1="0%" x2="66.7%" y2="100%"><stop offset="20%" stop-color="#b04a69" stop-opacity="1"></stop><stop offset="80%" stop-color="#7f3c68" stop-opacity="1"></stop></linearGradient></defs><defs><linearGradient id="grad2_5" x1="0%" y1="0%" x2="66.7%" y2="100%"><stop offset="20%" stop-color="#4d315a" stop-opacity="1"></stop><stop offset="80%" stop-color="#7f3c68" stop-opacity="1"></stop></linearGradient></defs><defs><linearGradient id="grad2_6" x1="0%" y1="0%" x2="66.7%" y2="100%"><stop offset="20%" stop-color="#4d315a" stop-opacity="1"></stop><stop offset="80%" stop-color="#202341" stop-opacity="1"></stop></linearGradient></defs><defs><linearGradient id="grad2_7" x1="0%" y1="0%" x2="66.7%" y2="100%"><stop offset="20%" stop-color="#001122" stop-opacity="1"></stop><stop offset="80%" stop-color="#202341" stop-opacity="1"></stop></linearGradient></defs><g transform="translate(900, 0)"><path d="M0 486.7C-52 484.4 -104.1 482 -150.4 462.9C-196.7 443.9 -237.3 408.1 -269.8 371.3C-302.2 334.6 -326.5 296.8 -359.2 261C-391.9 225.1 -432.9 191.2 -455.6 148C-478.2 104.8 -482.5 52.4 -486.7 0L0 0Z" fill="#0e1b32"></path><path d="M0 425.9C-45.5 423.8 -91.1 421.7 -131.6 405.1C-172.1 388.4 -207.7 357.1 -236.1 324.9C-264.5 292.8 -285.7 259.7 -314.3 228.4C-342.9 197 -378.8 167.3 -398.6 129.5C-418.4 91.7 -422.2 45.9 -425.9 0L0 0Z" fill="#352a4f"></path><path d="M0 365.1C-39 363.3 -78.1 361.5 -112.8 347.2C-147.6 332.9 -178 306.1 -202.3 278.5C-226.7 250.9 -244.9 222.6 -269.4 195.7C-293.9 168.8 -324.7 143.4 -341.7 111C-358.7 78.6 -361.9 39.3 -365.1 0L0 0Z" fill="#663763"></path><path d="M0 304.2C-32.5 302.7 -65.1 301.2 -94 289.3C-123 277.4 -148.3 255.1 -168.6 232.1C-188.9 209.1 -204.1 185.5 -224.5 163.1C-244.9 140.7 -270.6 119.5 -284.7 92.5C-298.9 65.5 -301.5 32.8 -304.2 0L0 0Z" fill="#98426a"></path><path d="M0 243.4C-26 242.2 -52 241 -75.2 231.5C-98.4 221.9 -118.7 204 -134.9 185.7C-151.1 167.3 -163.3 148.4 -179.6 130.5C-195.9 112.6 -216.5 95.6 -227.8 74C-239.1 52.4 -241.2 26.2 -243.4 0L0 0Z" fill="#c65466"></path><path d="M0 182.5C-19.5 181.6 -39 180.7 -56.4 173.6C-73.8 166.4 -89 153 -101.2 139.3C-113.3 125.5 -122.5 111.3 -134.7 97.9C-147 84.4 -162.3 71.7 -170.8 55.5C-179.3 39.3 -180.9 19.7 -182.5 0L0 0Z" fill="#e87157"></path><path d="M0 121.7C-13 121.1 -26 120.5 -37.6 115.7C-49.2 111 -59.3 102 -67.4 92.8C-75.6 83.6 -81.6 74.2 -89.8 65.2C-98 56.3 -108.2 47.8 -113.9 37C-119.6 26.2 -120.6 13.1 -121.7 0L0 0Z" fill="#f99844"></path><path d="M0 60.8C-6.5 60.5 -13 60.2 -18.8 57.9C-24.6 55.5 -29.7 51 -33.7 46.4C-37.8 41.8 -40.8 37.1 -44.9 32.6C-49 28.1 -54.1 23.9 -56.9 18.5C-59.8 13.1 -60.3 6.6 -60.8 0L0 0Z" fill="#fbae3c"></path></g><g transform="translate(0, 600)"><path d="M0 -486.7C50.7 -476.7 101.5 -466.6 145.5 -447.9C189.6 -429.3 227 -402 273.9 -377C320.8 -352 377.3 -329.2 393.8 -286.1C410.3 -243 386.8 -179.6 395.6 -128.6C404.5 -77.5 445.6 -38.7 486.7 0L0 0Z" fill="#0e1b32"></path><path d="M0 -425.9C44.4 -417.1 88.8 -408.3 127.4 -392C165.9 -375.6 198.6 -351.8 239.7 -329.9C280.7 -308 330.1 -288 344.6 -250.3C359 -212.6 338.5 -157.2 346.2 -112.5C353.9 -67.8 389.9 -33.9 425.9 0L0 0Z" fill="#352a4f"></path><path d="M0 -365.1C38.1 -357.5 76.1 -350 109.2 -336C142.2 -322 170.2 -301.5 205.4 -282.8C240.6 -264 283 -246.9 295.3 -214.6C307.7 -182.3 290.1 -134.7 296.7 -96.4C303.4 -58.1 334.2 -29.1 365.1 0L0 0Z" fill="#663763"></path><path d="M0 -304.2C31.7 -297.9 63.4 -291.6 91 -280C118.5 -268.3 141.9 -251.3 171.2 -235.6C200.5 -220 235.8 -205.7 246.1 -178.8C256.4 -151.9 241.8 -112.3 247.3 -80.3C252.8 -48.4 278.5 -24.2 304.2 0L0 0Z" fill="#98426a"></path><path d="M0 -243.4C25.4 -238.3 50.7 -233.3 72.8 -224C94.8 -214.6 113.5 -201 137 -188.5C160.4 -176 188.6 -164.6 196.9 -143.1C205.1 -121.5 193.4 -89.8 197.8 -64.3C202.2 -38.7 222.8 -19.4 243.4 0L0 0Z" fill="#c65466"></path><path d="M0 -182.5C19 -178.8 38.1 -175 54.6 -168C71.1 -161 85.1 -150.8 102.7 -141.4C120.3 -132 141.5 -123.4 147.7 -107.3C153.9 -91.1 145.1 -67.4 148.4 -48.2C151.7 -29.1 167.1 -14.5 182.5 0L0 0Z" fill="#e87157"></path><path d="M0 -121.7C12.7 -119.2 25.4 -116.7 36.4 -112C47.4 -107.3 56.7 -100.5 68.5 -94.3C80.2 -88 94.3 -82.3 98.4 -71.5C102.6 -60.8 96.7 -44.9 98.9 -32.1C101.1 -19.4 111.4 -9.7 121.7 0L0 0Z" fill="#f99844"></path><path d="M0 -60.8C6.3 -59.6 12.7 -58.3 18.2 -56C23.7 -53.7 28.4 -50.3 34.2 -47.1C40.1 -44 47.2 -41.1 49.2 -35.8C51.3 -30.4 48.4 -22.5 49.5 -16.1C50.6 -9.7 55.7 -4.8 60.8 0L0 0Z" fill="#fbae3c"></path></g></svg>