<svg width="512" height="512" xmlns="http://www.w3.org/2000/svg" preserveAspectRatio="xMidYMid meet" version="1.0">
 <metadata>Created by potrace 1.16, written by Peter Selinger 2001-2019</metadata>

 <g>
  <title>Layer 1</title>
  <g id="svg_1" fill="#000000" transform="translate(0 512) scale(0.1 -0.1)">
   <path fill="#654ff0" id="svg_2" d="m2533,5005c-39,-16 -107,-78 -145,-129c-56,-77 -33,-133 113,-282l109,-110l0,-51l0,-52l-352,-3c-309,-3 -357,-5 -383,-20c-32,-18 -891,-876 -919,-918c-22,-33 -20,-82 4,-113c11,-14 20,-29 20,-34c0,-13 70,-75 110,-98c34,-20 60,-20 1435,-23l1400,-2l122,-122l123,-123l0,-52l0,-53l-1892,0c-1279,0 -1905,-3 -1930,-11c-47,-13 -149,-105 -176,-160c-17,-33 -18,-46 -10,-72c12,-35 867,-902 926,-938c32,-20 44,-21 1110,-20c592,0 1103,-2 1135,-5l57,-7l0,-51l0,-52l-127,-126l-128,-126l-615,0c-421,0 -624,-4 -644,-12c-16,-6 -55,-37 -87,-70c-61,-62 -78,-103 -64,-157c9,-37 744,-776 798,-802c49,-24 78,-16 143,42c145,128 140,183 -37,363l-109,110l0,51l0,52l353,3c308,3 356,5 382,20c32,18 891,876 919,918c22,33 20,82 -4,113c-11,14 -20,29 -20,34c0,13 -70,75 -110,98c-34,20 -60,20 -1435,23l-1400,2l-122,122l-123,123l0,52l0,53l1893,0c1278,0 1904,3 1929,11c47,13 149,105 176,160c17,33 18,46 10,72c-12,35 -867,902 -925,938c-32,20 -49,20 -1168,20l-1135,0l0,57l0,58l128,126l127,126l615,0c421,0 624,4 644,12c16,6 55,37 87,70c61,62 78,103 64,157c-9,38 -768,796 -811,811c-22,7 -39,6 -61,-3z"/>
  </g>
 </g>
</svg>